<svg xmlns="http://www.w3.org/2000/svg" viewBox="0 0 48.1 32.3" role="img" aria-label="Airwallex">
  <defs>
    <linearGradient id="airwallex-mark" x1="0" y1="2" x2="48" y2="30" gradientUnits="userSpaceOnUse">
      <stop offset="0" stop-color="#FF4F42"/>
      <stop offset="1" stop-color="#FF8E3C"/>
    </linearGradient>
  </defs>
  <path
    fill="url(#airwallex-mark)"
    d="M312.76 380.53a6 6 0 0 1 1.42 6.42l-3.18 8.58a6.89 6.89 0 0 1-5 4.47 6.8 6.8 0 0 1-1.3.13 6.58 6.58 0 0 1-5.08-2.4l-19-22.69a.42.42 0 0 0-.71.12l-6.17 16.67a.42.42 0 0 0 .55.54l7.57-3.09a3.34 3.34 0 0 1 4.44 2.08 3.47 3.47 0 0 1-2 4.24l-9.89 4a5.93 5.93 0 0 1-7.88-7.56l7.29-19.68a6.84 6.84 0 0 1 11.68-2l10.88 13 10-4.08a5.84 5.84 0 0 1 6.38 1.24ZM307 387.07a.42.42 0 0 0-.55-.54l-5.53 2.26 3.32 4a.42.42 0 0 0 .71-.13Z"
    transform="translate(-266.13 -367.85)"
  />
</svg>
